<?xml version="1.0" encoding="UTF-8" standalone="no"?>
<svg
   xmlns:dc="http://purl.org/dc/elements/1.1/"
   xmlns:cc="http://creativecommons.org/ns#"
   xmlns:rdf="http://www.w3.org/1999/02/22-rdf-syntax-ns#"
   xmlns:svg="http://www.w3.org/2000/svg"
   xmlns="http://www.w3.org/2000/svg"
   xmlns:sodipodi="http://sodipodi.sourceforge.net/DTD/sodipodi-0.dtd"
   xmlns:inkscape="http://www.inkscape.org/namespaces/inkscape"
   fill="none"
   viewBox="0 0 348 348"
   version="1.1"
   id="svg16"
   sodipodi:docname="e621.net.svg"
   inkscape:version="1.0.2-2 (e86c870879, 2021-01-15)">
  <metadata
     id="metadata22">
    <rdf:RDF>
      <cc:Work
         rdf:about="">
        <dc:format>image/svg+xml</dc:format>
        <dc:type
           rdf:resource="http://purl.org/dc/dcmitype/StillImage" />
        <dc:title></dc:title>
      </cc:Work>
    </rdf:RDF>
  </metadata>
  <defs
     id="defs20" />
  <sodipodi:namedview
     pagecolor="#ffffff"
     bordercolor="#666666"
     borderopacity="1"
     objecttolerance="10"
     gridtolerance="10"
     guidetolerance="10"
     inkscape:pageopacity="0"
     inkscape:pageshadow="2"
     inkscape:window-width="2560"
     inkscape:window-height="1494"
     id="namedview18"
     showgrid="false"
     inkscape:zoom="2.4765692"
     inkscape:cx="147.74627"
     inkscape:cy="225.10014"
     inkscape:window-x="2869"
     inkscape:window-y="-11"
     inkscape:window-maximized="1"
     inkscape:current-layer="svg16" />
  <path
     stroke="#000"
     stroke-width="2"
     d="M5 6h337v338H5z"
     id="path2" />
  <ellipse
     cx="298.3"
     cy="40.5"
     stroke="#000"
     stroke-width="2"
     rx="15.9"
     ry="15.5"
     id="ellipse4" />
  <path
     style="opacity:1;fill:none;stroke:#000000;stroke-width:3;stroke-linecap:round;stroke-linejoin:round;stroke-miterlimit:4;stroke-dasharray:none"
     d="m 105.18583,190.38434 49.46359,-38.7633 50.47305,18.1703 6.05677,62.58658 -55.11657,21.80435 -39.57087,-20.593 z"
     id="path861" />
  <path
     style="opacity:1;fill:none;stroke:#000000;stroke-width:3;stroke-linecap:round;stroke-linejoin:round;stroke-miterlimit:4;stroke-dasharray:none"
     d="m 162.17461,145.04349 c 0,0 -7.709,-2.56967 -6.28141,-6.42417 1.42759,-3.8545 31.97809,-47.110583 40.40089,-39.972616 8.4228,7.137966 -8.13728,48.680936 -9.99315,49.394736 -1.85587,0.71379 -7.85176,2.4269 -9.56488,1.57035 -1.71311,-0.85656 2.56967,-0.85656 2.99795,-11.70627 0.42828,-10.84971 -1.42759,-10.42143 -4.28278,-10.42143 -2.85519,0 -13.27662,17.5594 -13.27662,17.5594 z"
     id="path863" />
  <path
     style="opacity:1;fill:none;stroke:#000000;stroke-width:3;stroke-linecap:round;stroke-linejoin:round;stroke-miterlimit:4;stroke-dasharray:none"
     d="m 173.88088,114.92127 21.27114,10.70695"
     id="path865" />
  <path
     style="opacity:1;fill:none;stroke:#000000;stroke-width:3;stroke-linecap:round;stroke-linejoin:round;stroke-miterlimit:4;stroke-dasharray:none"
     d="m 214.56729,172.59604 c 0,0 -0.57104,-7.42348 0.99931,-8.13728 1.57036,-0.7138 8.28005,-2.42691 32.12086,-1.28483 23.84081,1.14207 22.98425,1.71311 22.98425,1.71311 0,0 -3.14071,8.70832 -7.28073,11.84902 -4.14002,3.14071 -24.84012,17.70216 -31.26429,19.84355 -6.42417,2.14139 -10.99247,2.14139 -13.41938,0.42828 -2.42691,-1.71311 -2.42691,-7.13797 -2.42691,-7.13797 0,0 14.84697,-1.85587 19.27251,-7.13796 4.42554,-5.2821 4.5683,-6.42417 2.42691,-8.42281 -2.14139,-1.99863 -23.41253,-1.71311 -23.41253,-1.71311 z"
     id="path867" />
  <path
     style="opacity:1;fill:none;stroke:#000000;stroke-width:3;stroke-linecap:round;stroke-linejoin:round;stroke-miterlimit:4;stroke-dasharray:none"
     d="m 247.25918,187.30025 -3.42623,-23.55529"
     id="path869" />
  <path
     style="opacity:1;fill:none;stroke:#000000;stroke-width:3;stroke-linecap:round;stroke-linejoin:round;stroke-miterlimit:4;stroke-dasharray:none"
     d="m 111.54544,212.39059 7.57096,-16.75705 3.43216,2.11987"
     id="path871" />
  <path
     style="opacity:1;fill:none;stroke:#000000;stroke-width:3;stroke-linecap:round;stroke-linejoin:round;stroke-miterlimit:4;stroke-dasharray:none"
     d="m 135.57061,201.48841 32.90843,12.21448"
     id="path873" />
  <path
     style="opacity:1;fill:none;stroke:#000000;stroke-width:3;stroke-linecap:round;stroke-linejoin:round;stroke-miterlimit:4;stroke-dasharray:none"
     d="m 187.05312,225.31169 5.95582,3.73501 -0.60568,9.89271"
     id="path875" />
  <path
     style="opacity:1;fill:none;stroke:#000000;stroke-width:3;stroke-linecap:round;stroke-linejoin:round;stroke-miterlimit:4;stroke-dasharray:none"
     d="m 198.35908,202.49787 9.1861,-6.05676"
     id="path877" />
  <path
     style="opacity:1;fill:none;stroke:#000000;stroke-width:3;stroke-linecap:round;stroke-linejoin:round;stroke-miterlimit:4;stroke-dasharray:none"
     d="m 203.30544,200.07517 4.34068,6.25865"
     id="path879" />
  <path
     style="opacity:1;fill:none;stroke:#000000;stroke-width:3;stroke-linecap:round;stroke-linejoin:round;stroke-miterlimit:4;stroke-dasharray:none"
     d="m 137.79142,218.24546 3.33122,2.32176"
     id="path881" />
  <path
     style="opacity:1;fill:none;stroke:#000000;stroke-width:3;stroke-linecap:round;stroke-linejoin:round;stroke-miterlimit:4;stroke-dasharray:none"
     d="m 129.51384,212.59248 c 0,0 2.01893,-1.00946 3.12933,-2.82649 1.11041,-1.81703 5.95582,-18.47314 6.15771,-20.39111 0.2019,-1.91798 2.52366,-11.6088 0.10095,-13.62772 -2.42271,-2.01893 -6.96528,-0.90852 -9.69083,1.91797 -2.72554,2.82649 -8.78231,8.37853 -7.16717,16.858 1.61514,8.47947 5.65298,16.45421 6.5615,17.56462 0.90851,1.11041 0.90851,0.50473 0.90851,0.50473 z"
     id="path883" />
  <path
     style="opacity:1;fill:none;stroke:#000000;stroke-width:3;stroke-linecap:round;stroke-linejoin:round;stroke-miterlimit:4;stroke-dasharray:none"
     d="m 163.63362,225.91737 c 0,0 2.98901,-9.27944 4.84542,-12.21448 4.46147,-7.05371 9.21629,-15.79774 17.86746,-17.36273 5.83906,-1.05628 9.43382,2.66279 9.99366,3.12932 2.79607,2.33006 2.82649,11.10408 -0.80757,17.0599 -1.38813,2.27499 -6.25865,7.6719 -8.47947,8.78231 -2.22082,1.11041 -8.68137,3.12933 -15.94948,2.32176 -7.26812,-0.80757 -7.47002,-1.71608 -7.47002,-1.71608 z"
     id="path885"
     sodipodi:nodetypes="cssssssc" />
  <path
     style="opacity:1;fill:none;stroke:#000000;stroke-width:3;stroke-linecap:round;stroke-linejoin:round;stroke-miterlimit:4;stroke-dasharray:none"
     d="m 133.75358,168.1762 -0.90852,6.96528"
     id="path887" />
  <path
     style="opacity:1;fill:none;stroke:#000000;stroke-width:3;stroke-linecap:round;stroke-linejoin:round;stroke-miterlimit:4;stroke-dasharray:none"
     d="m 132.74412,222.38425 c 0,0 -1.11041,5.35015 1.71608,7.26812 2.82649,1.91798 5.14825,0.30284 5.14825,0.30284 0,0 0.80757,4.94636 8.17664,5.85487 7.36906,0.90852 7.6719,-0.70662 7.6719,-3.12933"
     id="path889" />
  <path
     style="color:#000000;font-style:normal;font-variant:normal;font-weight:normal;font-stretch:normal;font-size:medium;line-height:normal;font-family:sans-serif;font-variant-ligatures:normal;font-variant-position:normal;font-variant-caps:normal;font-variant-numeric:normal;font-variant-alternates:normal;font-variant-east-asian:normal;font-feature-settings:normal;font-variation-settings:normal;text-indent:0;text-align:start;text-decoration:none;text-decoration-line:none;text-decoration-style:solid;text-decoration-color:#000000;letter-spacing:normal;word-spacing:normal;text-transform:none;writing-mode:lr-tb;direction:ltr;text-orientation:mixed;dominant-baseline:auto;baseline-shift:baseline;text-anchor:start;white-space:normal;shape-padding:0;shape-margin:0;inline-size:0;clip-rule:nonzero;display:inline;overflow:visible;visibility:visible;opacity:1;isolation:auto;mix-blend-mode:normal;color-interpolation:sRGB;color-interpolation-filters:linearRGB;solid-color:#000000;solid-opacity:1;vector-effect:none;fill:#000000;fill-opacity:1;fill-rule:nonzero;stroke:none;stroke-linecap:round;stroke-linejoin:round;stroke-miterlimit:4;stroke-dasharray:none;stroke-dashoffset:0;stroke-opacity:1;color-rendering:auto;image-rendering:auto;shape-rendering:auto;text-rendering:auto;enable-background:accumulate;stop-color:#000000;stop-opacity:1"
     d="m 137.875,186.15625 c -1.16539,0.0115 -2.21866,0.69693 -2.70117,1.75781 l -5.35352,11.77735 c -0.68564,1.50853 -0.0184,3.28725 1.49024,3.97265 1.508,0.68589 3.28651,0.0196 3.97265,-1.48828 l 3.81886,-11.84872 c 0.68564,-1.50853 1.55306,-3.21588 0.0444,-3.90128 -0.39904,-0.18168 -0.83305,-0.27368 -1.27148,-0.26953 z"
     id="path893"
     sodipodi:nodetypes="cccccccc" />
  <path
     style="opacity:1;fill:none;stroke:#000000;stroke-width:6;stroke-linecap:round;stroke-linejoin:round;stroke-miterlimit:4;stroke-dasharray:none"
     d="m 180.8047,217.85075 6.92383,-12.9911"
     id="path895" />
</svg>
